<?xml version="1.0" standalone="no"?>
<!DOCTYPE svg PUBLIC "-//W3C//DTD SVG 20010904//EN"
 "http://www.w3.org/TR/2001/REC-SVG-20010904/DTD/svg10.dtd">
<svg version="1.0" xmlns="http://www.w3.org/2000/svg"
 width="81.000000pt" height="134.000000pt" viewBox="0 0 81.000000 134.000000"
 preserveAspectRatio="xMidYMid meet">

<g transform="translate(0.000000,134.000000) scale(0.100000,-0.100000)"
fill="#000000" stroke="none">
<path d="M209 901 c-42 -27 -84 -60 -93 -72 -14 -20 -16 -65 -16 -342 0 -200
4 -325 10 -338 10 -18 24 -19 289 -19 247 0 280 2 292 17 18 21 26 598 9 656
-9 32 -24 46 -96 92 l-85 55 -117 0 -117 0 -76 -49z m341 -126 c16 -8 34 -24
40 -34 6 -12 10 -104 10 -226 l0 -207 -29 -29 -29 -29 -140 0 c-133 0 -140 1
-165 24 -14 13 -29 35 -32 48 -4 14 -5 111 -3 217 l3 193 33 29 c32 29 33 29
158 29 92 0 133 -4 154 -15z"/>
<path d="M253 746 l-28 -24 -3 -183 c-4 -199 -1 -220 28 -249 18 -18 34 -20
149 -20 115 0 131 2 155 21 l26 20 0 204 c0 236 -2 243 -83 252 l-47 6 0 -54
0 -54 -51 4 c-37 2 -48 6 -40 14 15 15 14 64 -1 70 -7 3 3 6 22 6 35 1 36 0
32 -33 -2 -18 1 -37 7 -40 7 -5 11 8 11 38 l0 46 -74 0 c-65 0 -79 -3 -103
-24z m201 -198 c8 -6 8 -10 0 -15 -7 -5 -14 -19 -17 -33 -2 -14 -4 2 -4 35 -1
33 2 51 4 40 3 -11 10 -23 17 -27z m-46 25 c-23 -6 -23 -31 -1 -55 18 -20 10
-39 -9 -20 -9 9 -15 9 -25 0 -21 -17 -28 -1 -10 20 22 24 22 49 0 55 -10 3 0
5 22 5 22 0 32 -2 23 -5z m12 -173 c0 -5 -7 -10 -17 -10 -14 0 -14 -2 2 -20
10 -11 13 -20 7 -20 -6 0 -14 5 -18 11 -4 8 -9 8 -17 0 -17 -17 -31 -13 -17 4
10 12 10 18 0 30 -11 13 -7 15 24 15 20 0 36 -4 36 -10z m28 -42 l-3 -53 -40
0 c-29 0 -41 4 -43 17 -3 14 3 16 32 11 l36 -6 0 42 c0 22 5 41 11 41 6 0 9
-21 7 -52z"/>
<path d="M380 720 c0 -16 5 -30 10 -30 6 0 10 14 10 30 0 17 -4 30 -10 30 -5
0 -10 -13 -10 -30z"/>
</g>
</svg>
